<svg width="512" height="512" viewBox="0 0 512 512" fill="none" xmlns="http://www.w3.org/2000/svg">
  <!-- Background -->
  <rect width="512" height="512" rx="64" fill="#0a0a0f"/>

  <!-- Outer hexagon -->
  <path
    d="M256 48L432 144V336L256 432L80 336V144L256 48Z"
    stroke="#00CED1"
    stroke-width="8"
    fill="none"
  />

  <!-- Inner circle -->
  <circle
    cx="256"
    cy="240"
    r="100"
    stroke="#00CED1"
    stroke-width="6"
    fill="none"
  />

  <!-- Center node -->
  <circle cx="256" cy="240" r="20" fill="#00CED1"/>

  <!-- Neural connections -->
  <g stroke="#8B5CF6" stroke-width="3" opacity="0.8">
    <line x1="256" y1="240" x2="180" y2="200"/>
    <line x1="256" y1="240" x2="332" y2="200"/>
    <line x1="256" y1="240" x2="180" y2="280"/>
    <line x1="256" y1="240" x2="332" y2="280"/>
    <line x1="256" y1="240" x2="256" y2="160"/>
    <line x1="256" y1="240" x2="256" y2="320"/>
  </g>

  <!-- Neural nodes -->
  <circle cx="180" cy="200" r="10" fill="#8B5CF6"/>
  <circle cx="332" cy="200" r="10" fill="#8B5CF6"/>
  <circle cx="180" cy="280" r="10" fill="#8B5CF6"/>
  <circle cx="332" cy="280" r="10" fill="#8B5CF6"/>
  <circle cx="256" cy="160" r="10" fill="#8B5CF6"/>
  <circle cx="256" cy="320" r="10" fill="#8B5CF6"/>

  <!-- Text -->
  <text
    x="256"
    y="420"
    text-anchor="middle"
    fill="#00CED1"
    font-family="Orbitron, sans-serif"
    font-size="36"
    font-weight="bold"
    letter-spacing="6"
  >
    CHROMADON
  </text>
</svg>
